PathFileType	4	(X/Y/Z)	C:/Users/beibeiliu/ov580/test_trc\sequence.3_training_dense_right.trc
DataRate	CameraRate	NumFrames	NumMarkers	Units	OrigDataRate	OrigDataStartFrame	OrigNumFrames
120	120	19	19	mm	120	57	84
Frame#	Time	ThumbCMC			ThumbMCP			ThumbIP			ThumbTip			IndexMCP			IndexPIP			IndexTip			MiddleMCP			MiddlePIP			MiddleTip			RingMCP			RingPIP			RingTip			PinkyMCP			PinkyPIP			PinkyTip			BackHand1			BackHand2			BackHand3	
		X0	Y0	Z0	X1	Y1	Z1	X2	Y2	Z2	X3	Y3	Z3	X4	Y4	Z4	X5	Y5	Z5	X6	Y6	Z6	X7	Y7	Z7	X8	Y8	Z8	X9	Y9	Z9	X10	Y10	Z10	X11	Y11	Z11	X12	Y12	Z12	X13	Y13	Z13	X14	Y14	Z14	X15	Y15	Z15	X16	Y16	Z16	X17	Y17	Z17	X18	Y18	Z18	
56	0.466667	113.113	65.6941	59.4803	115.252	66.3754	26.6703	123.437	59.7326	6.92656	128.303	45.7571	-11.4218	157.555	47.1477	18.2326	141.17	49.4234	-0.315404	120.446	54.1989	23.3963	149.967	30.5522	16.2027	125.979	32.7288	1.16662	112.493	42.6707	29.5752	137.975	17.5141	20.0942	111.602	25.1136	11.9411	103.712	32.2573	37.0264	128.968	6.2596	25.9631	106.393	15.3933	19.8408	102.032	26.5949	43.3661	134.843	17.5476	70.3328	117.651	24.6664	90.2579	133.694	46.69	77.1198	
57	0.475	102.026	66.8552	58.5412	101.234	70.2723	24.2318	107.116	68.9875	0.416412	114.544	58.0729	-13.0666	143.981	74.2965	11.6659	125.727	61.9488	-5.78873	112.746	56.7773	21.7748	146.156	50.38	8.166	118.711	42.8449	-2.22188	110.093	42.656	27.314	143.047	31.9751	13.2293	115.907	29.8604	8.27838	108.246	36.9091	35.9408	140.024	17.2716	17.2651	117.04	22.0313	16.8537	110.626	29.6447	44.2293	146.555	38.5012	63.326	133.364	33.0066	83.178	133.149	59.2672	71.7977	
58	0.483333	88.2164	67.1239	56.1866	75.8032	65.7605	27.9797	75.1824	67.6255	4.78077	88.2943	59.1969	-16.2552	113.172	85.8438	4.16512	94.7892	68.852	-9.44781	90.8524	59.772	17.7987	123.385	67.783	0.961068	102.046	44.6178	-4.62088	96.0458	47.9515	27.6421	126.19	52.2094	4.21289	105.658	33.3088	8.26176	101.725	37.6839	33.5478	134.111	34.7669	10.515	111.242	26.1619	15.5653	107.009	31.9872	41.4878	140.081	55.4539	53.1307	131.847	47.6215	79.5234	118.885	72.6176	66.5362	
59	0.491667	70.1582	65.6962	58.1145	50.0358	58.8919	33.028	52.3556	57.4941	8.48314	55.9823	50.8982	-11.3726	70.8568	88.5979	0.625253	64.0022	65.0542	-10.843	70.6209	53.8902	16.8432	87.7535	71.0687	-7.22174	76.8115	44.1494	-5.35199	79.7415	43.8341	25.375	101.255	57.5225	-3.1226	88.3691	34.6997	7.13669	92.1083	39.7132	33.7217	115.413	48.3946	3.95353	99.9959	30.3522	13.6202	97.8219	39.756	36.7154	118.162	76.4194	38.6241	120.527	67.8677	69.8952	98.2047	83.9777	60.3635	
60	0.5	54.5361	63.1664	63.7303	41.3863	51.022	39.1249	32.7609	45.1963	17.5006	35.3729	36.9201	-6.47687	47.3386	80.2455	-1.83058	40.9129	52.8385	-5.42101	50.5399	46.4321	22.474	63.8708	70.3797	-5.11614	56.1504	40.8694	-4.42482	68.7385	43.3027	29.6963	80.7115	54.3079	-5.62522	75.082	34.0337	8.31864	80.7394	42.027	35.0311	98.9555	50.9359	1.70536	83.7594	34.8361	16.0712	88.7708	40.9586	37.8692	100.959	83.8737	34.3151	107.088	79.8091	62.6983	78.8662	89.8865	53.8923	
61	0.508333	47.1893	62.2644	63.8872	29.5964	44.03	47.3528	22.294	37.0585	23.7461	27.9941	31.0131	3.23856	35.6869	76.6701	5.62001	33.4676	48.4089	-6.55927	38.0563	36.855	18.4534	57.1005	65.6669	-3.48712	47.3709	35.219	-3.23181	55.2532	34.4387	27.421	69.1761	55.2026	-2.4544	64.2203	31.8132	4.98184	69.9812	34.2415	33.5753	85.5042	49.8754	2.02208	79.1225	31.2035	11.9988	76.337	41.5827	40.2598	89.7966	82.1778	34.0075	97.4714	81.4841	61.8658	65.8813	88.084	57.0659	
62	0.516667	43.3047	60.3456	68.737	27.6487	43.9651	49.6125	18.1603	37.4802	25.1008	19.3406	29.0758	6.01513	37.4029	74.5432	6.67526	31.1533	53.2918	-10.2591	32.1791	28.7061	10.2155	53.4733	64.8297	-7.4765	44.8856	37.9017	-11.0383	52.7111	24.9558	19.9849	72.9004	56.501	-2.37185	59.709	29.9333	0.176069	63.9584	25.4253	29.4743	90.6366	50.3286	3.13329	74.9914	29.5002	7.01005	68.3324	32.0947	32.64	87.6066	78.8781	41.0865	96.946	78.1566	67.3007	65.0864	83.3216	57.4618	
63	0.525	40.7707	56.571	69.4759	25.2917	41.856	50.849	15.3808	34.8224	30.1872	15.8161	24.9475	6.85972	37.9719	70.1997	6.68496	24.9632	50.3786	-12.7565	31.8057	22.52	-4.8333	56.0901	65.4156	-4.19275	47.5518	44.0536	-19.8958	50.034	13.1855	0.72499	75.5657	58.0087	-1.24935	66.1263	33.7313	-11.8982	61.8599	15.5454	7.26532	93.5611	51.2183	5.37819	80.2342	34.4577	-3.68619	67.8703	18.0777	13.8083	86.2635	76.6659	40.9705	93.0434	74.3383	70.8129	60.9849	79.0384	59.7344	
64	0.533333	42.8547	50.2236	75.889	22.1467	35.8232	52.181	14.7474	26.9192	35.4697	15.5743	19.0028	11.1965	33.0074	64.3974	10.2887	24.3724	45.6919	-14.7528	27.5525	19.5353	-18.7474	52.6919	62.3232	-2.46273	50.7295	43.7696	-24.3838	45.5562	13.1124	-23.788	75.8341	56.747	-0.0665499	69.5921	34.1218	-20.9154	61.4626	14.0443	-15.6148	94.5112	50.6032	7.41699	88.4993	34.4024	-9.59172	78.1659	13.1846	-9.44895	85.6519	70.4212	42.1853	91.2871	71.6697	71.0437	61.7371	73.2249	62.0717	
65	0.541667	41.4562	46.5678	75.1261	27.4441	30.8839	55.1929	17.5042	22.259	36.5664	17.1494	12.2856	16.9961	35.7317	57.6846	10.2103	31.4994	42.9505	-15.5631	27.5184	23.043	-26.5387	58.8695	57.0167	-5.67675	53.633	42.9182	-25.0294	47.8934	17.3255	-36.1755	75.1479	51.8281	-0.87096	70.6704	36.8295	-20.5866	63.7103	13.7705	-28.4695	96.8779	46.5126	7.72451	96.1327	31.9857	-10.5778	88.0936	17.7128	-19.7451	86.1055	66.3293	46.1203	89.2335	67.609	73.3525	62.5837	71.7521	59.2603	
66	0.55	43.0366	45.1201	74.6215	30.2209	27.7986	56.8494	20.0006	18.3524	34.1463	21.4502	8.67285	16.7315	39.5937	51.6171	6.04555	30.9646	41.9563	-12.8728	26.9567	20.3107	-31.63	60.8974	52.8082	-1.85175	56.3309	40.1307	-25.7294	53.306	15.7446	-43.8603	80.4969	47.0088	-3.16987	76.5238	32.6527	-23.3166	70.3781	17.0201	-33.9917	101.127	43.2719	9.33242	100.74	34.4323	-5.74616	100.912	18.8095	-24.0324	89.8547	64.5636	41.5061	92.8756	66.0053	69.3338	64.7619	67.9587	61.1283	
67	0.558333	44.2468	44.1186	74.7227	32.2635	26.1067	55.2439	27.14	16.7924	32.8405	22.9193	5.12042	17.276	42.2356	49.0263	5.6381	33.352	37.252	-14.3812	31.7225	20.4313	-32.5745	59.4496	48.3262	-5.61829	59.3476	37.914	-25.6532	56.6498	19.3847	-45.1027	84.4653	45.5942	1.51404	79.5503	34.101	-19.9369	75.4121	18.2367	-35.9287	105.739	40.0542	10.6996	102.363	31.4788	-10.1237	105.693	23.4905	-24.159	90.3967	62.1171	44.5893	97.2448	66.4829	70.801	63.571	67.3921	58.0519	
68	0.566667	45.7354	43.9089	73.4387	34.1228	26.9803	55.8127	22.6511	14.7852	34.2407	22.3653	4.76576	15.7606	43.6326	49.1503	6.80176	38.0073	39.1621	-14.8635	29.3476	22.332	-31.7464	63.9841	48.6275	-8.18144	60.5832	37.3837	-26.4949	56.8609	19.6472	-47.4345	85.9951	45.0573	-1.37946	79.2332	34.4797	-21.0653	73.9747	19.3067	-40.5912	104.086	39.8524	8.58271	102.296	33.3443	-5.54372	104.438	25.7452	-27.932	88.9177	62.169	43.9981	95.6059	66.0016	66.3137	68.6045	67.2128	55.6762	
69	0.575	48.7154	46.0224	67.8062	34.0354	28.7085	53.6622	24.4869	17.4366	30.2323	23.4793	6.40897	16.2302	38.9558	50.2065	2.57963	34.0551	39.8686	-16.5195	28.3823	24.2841	-33.0464	61.7735	50.7071	-6.63717	56.7776	39.44	-27.881	58.3762	20.0639	-49.0527	84.4744	46.8306	-0.752502	78.0985	36.5535	-21.2052	78.3041	21.022	-41.2984	101.31	41.5004	5.71463	106.582	34.3187	-6.81508	106.778	27.9622	-25.3073	91.1947	62.9867	39.353	92.223	67.4699	68.8815	65.6382	67.3512	59.2767	
70	0.583333	48.9827	46.3903	70.6047	33.617	28.8751	51.3146	21.8657	17.933	31.7819	21.9076	7.53732	13.2464	41.6976	51.5898	0.593491	33.0338	41.4321	-17.0612	25.3274	22.9943	-35.4502	65.1456	52.3429	-6.23609	55.5971	42.8061	-26.2269	57.0556	24.5316	-47.5749	81.341	48.0208	-0.705245	77.5214	39.548	-21.9703	72.5866	25.9402	-40.472	101.141	43.5011	5.22034	104.002	35.21	-11.6136	102.523	32.376	-25.9718	90.8129	62.0862	38.7399	93.1586	66.7757	64.3135	66.9348	70.6464	56.1578	
71	0.591667	48.5458	47.7756	69.7093	30.5916	30.6022	54.0487	26.7924	20.8706	29.9613	22.46	9.1699	10.2654	40.9285	55.9901	4.23468	36.0823	43.8774	-18.3295	26.6531	30.0252	-32.1386	60.41	55.3694	-7.33857	55.945	46.9191	-26.8771	51.5173	26.2509	-49.9547	82.0125	50.8654	-2.18108	81.7123	41.5032	-22.2214	73.1206	28.102	-43.2953	102.853	44.7371	8.96655	101.233	40.287	-8.54472	102.338	34.2784	-24.9636	92.5537	66.0973	42.6801	94.6656	67.9149	70.6507	67.9356	69.1634	61.0964	
72	0.6	50.1748	48.2353	74.0678	32.4054	31.5981	51.3249	27.1128	22.7296	30.1046	25.2703	11.9074	11.3122	44.3375	58.4497	7.55508	35.7681	46.6398	-18.004	30.1197	30.9145	-34.2583	62.828	57.6012	-4.82485	59.671	48.0856	-28.272	53.1692	32.0182	-46.9855	82.4946	53.9438	1.30714	77.0626	44.3509	-22.8739	76.6447	30.9	-41.6005	101.43	47.6067	10.9158	101.17	40.2335	-11.1931	105.447	35.4297	-29.2774	92.1931	66.9413	44.1797	96.3546	68.9537	66.3639	65.2597	70.8662	58.3185	
73	0.608333	49.3333	47.9433	72.2518	30.2271	30.1584	55.9548	28.2563	21.6801	33.5657	25.6071	12.9452	14.4863	42.541	57.6999	8.44796	32.4415	47.478	-12.4134	28.9046	34.5944	-30.2706	62.342	57.7252	-1.933	59.6707	48.9641	-22.7992	54.7043	32.7447	-45.2638	82.0831	53.7552	4.17494	81.97	45.0477	-21.4955	77.0784	32.6909	-39.3267	103.8	46.8116	12.8407	106.491	40.4477	-7.05525	106.636	36.882	-27.8584	89.4665	64.8089	44.8523	95.0544	67.7613	72.286	66.528	69.5542	63.8104	
74	0.616667	50.3681	45.8029	76.1032	34.3455	29.8514	55.2299	29.2017	21.1378	36.6438	28.4912	12.1415	16.0637	42.7863	55.9872	11.3233	34.3707	46.5764	-12.0071	33.3891	33.6824	-29.3667	62.6169	55.5826	0.262316	61.4349	46.4482	-23.0351	58.7682	34.2352	-43.3977	84.0975	53.4089	6.9981	82.2787	42.9666	-20.5759	79.1096	35.0959	-34.7288	104.546	46.9731	15.5496	106.263	40.7877	-6.14017	105.053	37.2464	-24.3609	92.5782	64.7207	46.0116	95.4626	67.4771	75.6436	66.4541	69.9993	62.2745	
